<svg viewBox="0 0 1200 108" width="100%" xmlns="http://www.w3.org/2000/svg" role="img" aria-label="v2.0 路线图">
  <defs>
    <linearGradient id="bg-sec-roadmap" x1="0" y1="0" x2="1" y2="1">
      <stop offset="0" stop-color="#fff7ee"/><stop offset="1" stop-color="#fdeee1"/>
    </linearGradient>
  </defs>
  <rect x="4" y="10" width="1192" height="88" rx="24" fill="url(#bg-sec-roadmap)" stroke="#f3d9c3" stroke-width="2"/>
  <circle cx="1060" cy="30" r="42" fill="#7db8f7" opacity="0.10"/>
  <!-- 贴纸 -->
  <g transform="translate(30 22) rotate(-1.4)">
    <rect width="266" height="64" rx="16" fill="#7db8f7" opacity="0.30"/>
    <rect width="266" height="64" rx="16" fill="none" stroke="#7db8f7" stroke-opacity="0.75" stroke-width="2"/>
    <rect x="104" y="-9" width="58" height="17" rx="3.5" fill="#7db8f7" opacity="0.45" transform="rotate(-5 133 -1)"/>
    <g transform="translate(16 10) scale(1.85)"><path d="M4 18.5 C8 18.5 8 12.5 12 12.5 C16 12.5 16 6.5 20 6.5" fill="none" stroke="#7a5a44" stroke-width="1.7" stroke-linecap="round" stroke-dasharray="2.6 3"/>
<circle cx="4" cy="18.5" r="2" fill="#7db8f7" stroke="#7a5a44" stroke-width="1.4"/>
<circle cx="12" cy="12.5" r="2" fill="#ffffff" stroke="#7a5a44" stroke-width="1.4"/>
<path d="M20 6.5 L20 2.8 L23 3.9 L20 5 Z" fill="#7db8f7" stroke="#7a5a44" stroke-width="1.3" stroke-linejoin="round"/>
<circle cx="20" cy="6.5" r="1.6" fill="#7db8f7" stroke="#7a5a44" stroke-width="1.4"/></g>
    <text x="66" y="43" font-family="ui-rounded, 'Hiragino Maru Gothic ProN', 'Yuanti SC', -apple-system, 'Segoe UI', sans-serif" font-weight="800" font-size="31" fill="#6b4b38">v2.0 路线图</text>
  </g>
  <!-- 虚线延伸 -->
  <line x1="322" y1="54" x2="1130" y2="54" stroke="#e6c9ae" stroke-width="2.4" stroke-dasharray="7 8" stroke-linecap="round"/>
  <!-- 右端糖果点 -->
  <circle cx="1148" cy="54" r="7" fill="#7db8f7" opacity="0.9"/>
  <circle cx="1166" cy="47" r="4.5" fill="#7db8f7" opacity="0.45"/>
  <ellipse cx="1160" cy="63" rx="5.5" ry="3.6" fill="#ffb3c6" opacity="0.7" transform="rotate(-24 1160 63)"/>
</svg>
