<svg viewBox="0 0 1200 108" width="100%" xmlns="http://www.w3.org/2000/svg" role="img" aria-label="快速开始">
  <defs>
    <linearGradient id="bg-sec-quickstart" x1="0" y1="0" x2="1" y2="1">
      <stop offset="0" stop-color="#fff7ee"/><stop offset="1" stop-color="#fdeee1"/>
    </linearGradient>
  </defs>
  <rect x="4" y="10" width="1192" height="88" rx="24" fill="url(#bg-sec-quickstart)" stroke="#f3d9c3" stroke-width="2"/>
  <circle cx="1060" cy="30" r="42" fill="#ff8fab" opacity="0.10"/>
  <!-- 贴纸 -->
  <g transform="translate(30 22) rotate(-1.4)">
    <rect width="212" height="64" rx="16" fill="#ff8fab" opacity="0.30"/>
    <rect width="212" height="64" rx="16" fill="none" stroke="#ff8fab" stroke-opacity="0.75" stroke-width="2"/>
    <rect x="77" y="-9" width="58" height="17" rx="3.5" fill="#ff8fab" opacity="0.45" transform="rotate(-5 106 -1)"/>
    <g transform="translate(16 10) scale(1.85)"><rect x="3.5" y="3.5" width="17" height="17" rx="5.4" fill="#ff8fab" opacity="0.85" stroke="#7a5a44" stroke-width="1.8"/>
<path d="M10 8.6 L15.8 12 L10 15.4 Z" fill="#fff" stroke="#7a5a44" stroke-width="1.5" stroke-linejoin="round"/></g>
    <text x="66" y="43" font-family="ui-rounded, 'Hiragino Maru Gothic ProN', 'Yuanti SC', -apple-system, 'Segoe UI', sans-serif" font-weight="800" font-size="31" fill="#6b4b38">快速开始</text>
  </g>
  <!-- 虚线延伸 -->
  <line x1="268" y1="54" x2="1130" y2="54" stroke="#e6c9ae" stroke-width="2.4" stroke-dasharray="7 8" stroke-linecap="round"/>
  <!-- 右端糖果点 -->
  <circle cx="1148" cy="54" r="7" fill="#ff8fab" opacity="0.9"/>
  <circle cx="1166" cy="47" r="4.5" fill="#ff8fab" opacity="0.45"/>
  <ellipse cx="1160" cy="63" rx="5.5" ry="3.6" fill="#ffb3c6" opacity="0.7" transform="rotate(-24 1160 63)"/>
</svg>
