<svg viewBox="0 0 1200 108" width="100%" xmlns="http://www.w3.org/2000/svg" role="img" aria-label="License">
  <defs>
    <linearGradient id="bg-sec-license" x1="0" y1="0" x2="1" y2="1">
      <stop offset="0" stop-color="#fff7ee"/><stop offset="1" stop-color="#fdeee1"/>
    </linearGradient>
  </defs>
  <rect x="4" y="10" width="1192" height="88" rx="24" fill="url(#bg-sec-license)" stroke="#f3d9c3" stroke-width="2"/>
  <circle cx="1060" cy="30" r="42" fill="#6fd8b4" opacity="0.10"/>
  <!-- 贴纸 -->
  <g transform="translate(30 22) rotate(-1.4)">
    <rect width="207" height="64" rx="16" fill="#6fd8b4" opacity="0.30"/>
    <rect width="207" height="64" rx="16" fill="none" stroke="#6fd8b4" stroke-opacity="0.75" stroke-width="2"/>
    <rect x="74" y="-9" width="58" height="17" rx="3.5" fill="#6fd8b4" opacity="0.45" transform="rotate(-5 103 -1)"/>
    <g transform="translate(16 10) scale(1.85)"><circle cx="12" cy="10" r="6.2" fill="#6fd8b4" opacity="0.8" stroke="#7a5a44" stroke-width="1.7"/>
<circle cx="12" cy="10" r="3.1" fill="#ffffff" opacity="0.85" stroke="#7a5a44" stroke-width="1.3"/>
<path d="M9.4 15.4 L7.8 20.6 L10.6 19.2 L12 21.4 L13.4 19.2 L16.2 20.6 L14.6 15.4" fill="#6fd8b4" opacity="0.55" stroke="#7a5a44" stroke-width="1.5" stroke-linejoin="round"/></g>
    <text x="66" y="43" font-family="ui-rounded, 'Hiragino Maru Gothic ProN', 'Yuanti SC', -apple-system, 'Segoe UI', sans-serif" font-weight="800" font-size="31" fill="#6b4b38">License</text>
  </g>
  <!-- 虚线延伸 -->
  <line x1="263" y1="54" x2="1130" y2="54" stroke="#e6c9ae" stroke-width="2.4" stroke-dasharray="7 8" stroke-linecap="round"/>
  <!-- 右端糖果点 -->
  <circle cx="1148" cy="54" r="7" fill="#6fd8b4" opacity="0.9"/>
  <circle cx="1166" cy="47" r="4.5" fill="#6fd8b4" opacity="0.45"/>
  <ellipse cx="1160" cy="63" rx="5.5" ry="3.6" fill="#ffb3c6" opacity="0.7" transform="rotate(-24 1160 63)"/>
</svg>
