<svg viewBox="0 0 1200 108" width="100%" xmlns="http://www.w3.org/2000/svg" role="img" aria-label="再看两眼">
  <defs>
    <linearGradient id="bg-sec-shots" x1="0" y1="0" x2="1" y2="1">
      <stop offset="0" stop-color="#fff7ee"/><stop offset="1" stop-color="#fdeee1"/>
    </linearGradient>
  </defs>
  <rect x="4" y="10" width="1192" height="88" rx="24" fill="url(#bg-sec-shots)" stroke="#f3d9c3" stroke-width="2"/>
  <circle cx="1060" cy="30" r="42" fill="#ffab76" opacity="0.10"/>
  <!-- 贴纸 -->
  <g transform="translate(30 22) rotate(-1.4)">
    <rect width="212" height="64" rx="16" fill="#ffab76" opacity="0.30"/>
    <rect width="212" height="64" rx="16" fill="none" stroke="#ffab76" stroke-opacity="0.75" stroke-width="2"/>
    <rect x="77" y="-9" width="58" height="17" rx="3.5" fill="#ffab76" opacity="0.45" transform="rotate(-5 106 -1)"/>
    <g transform="translate(16 10) scale(1.85)"><rect x="4.5" y="3.5" width="15" height="17" rx="2" fill="#ffffff" stroke="#7a5a44" stroke-width="1.7" transform="rotate(-4 12 12)"/>
<rect x="7" y="6" width="10" height="8.2" rx="1.2" fill="#ffab76" opacity="0.75" transform="rotate(-4 12 12)"/>
<circle cx="10.4" cy="9" r="1.5" fill="#fff" opacity="0.9" transform="rotate(-4 12 12)"/>
<line x1="7.4" y1="17.2" x2="13" y2="17.2" stroke="#7a5a44" stroke-width="1.4" stroke-linecap="round" transform="rotate(-4 12 12)"/></g>
    <text x="66" y="43" font-family="ui-rounded, 'Hiragino Maru Gothic ProN', 'Yuanti SC', -apple-system, 'Segoe UI', sans-serif" font-weight="800" font-size="31" fill="#6b4b38">再看两眼</text>
  </g>
  <!-- 虚线延伸 -->
  <line x1="268" y1="54" x2="1130" y2="54" stroke="#e6c9ae" stroke-width="2.4" stroke-dasharray="7 8" stroke-linecap="round"/>
  <!-- 右端糖果点 -->
  <circle cx="1148" cy="54" r="7" fill="#ffab76" opacity="0.9"/>
  <circle cx="1166" cy="47" r="4.5" fill="#ffab76" opacity="0.45"/>
  <ellipse cx="1160" cy="63" rx="5.5" ry="3.6" fill="#ffb3c6" opacity="0.7" transform="rotate(-24 1160 63)"/>
</svg>
